<svg width="38" height="40" viewBox="0 0 38 40" fill="none" xmlns="http://www.w3.org/2000/svg">
<rect x="0.0565796" y="0.942139" width="37.0566" height="38.0755" rx="5" fill="#004638"/>
<path d="M13.6343 28.1337C12.5331 27.0022 11.7831 25.5605 11.4793 23.991C11.1754 22.4215 11.3314 20.7947 11.9274 19.3162C12.5234 17.8378 13.5327 16.5741 14.8276 15.6851C16.1226 14.796 17.6451 14.3215 19.2025 14.3215C20.7599 14.3215 22.2824 14.796 23.5773 15.6851C24.8723 16.5741 25.8816 17.8378 26.4776 19.3162C27.0736 20.7947 27.2296 22.4215 26.9257 23.991C26.6219 25.5605 25.8719 27.0022 24.7707 28.1337L26.0078 29.4049C26.9029 28.4877 27.6127 27.3978 28.0965 26.1978C28.5803 24.9978 28.8285 23.7114 28.8269 22.4125C28.8269 16.951 24.5178 12.5234 19.2025 12.5234C13.8872 12.5234 9.57806 16.951 9.57806 22.4125C9.57806 25.1437 10.6551 27.6159 12.3971 29.4049L13.6343 28.1337V28.1337Z" fill="#159643"/>
<path d="M23.5335 26.8625C24.39 25.9824 24.9732 24.8611 25.2095 23.6404C25.4458 22.4197 25.3245 21.1544 24.8609 20.0045C24.3973 18.8547 23.6123 17.8719 22.6051 17.1804C21.5979 16.4889 20.4138 16.1199 19.2025 16.1199C17.9912 16.1199 16.8071 16.4889 15.7999 17.1804C14.7927 17.8719 14.0077 18.8547 13.5442 20.0045C13.0806 21.1544 12.9593 22.4197 13.1955 23.6404C13.4318 24.8611 14.015 25.9824 14.8715 26.8625L16.1096 25.5913C15.4978 24.9627 15.0811 24.1618 14.9123 23.2898C14.7435 22.4179 14.8301 21.514 15.1612 20.6927C15.4923 19.8713 16.053 19.1693 16.7725 18.6754C17.4919 18.1814 18.3377 17.9178 19.203 17.9178C20.0682 17.9178 20.914 18.1814 21.6334 18.6754C22.3529 19.1693 22.9136 19.8713 23.2447 20.6927C23.5758 21.514 23.6624 22.4179 23.4936 23.2898C23.3248 24.1618 22.9082 24.9627 22.2963 25.5913L23.5335 26.8625Z" fill="#159643"/>
<path d="M21.0583 24.3193C21.4253 23.9421 21.6752 23.4615 21.7765 22.9383C21.8777 22.4152 21.8257 21.8729 21.627 21.3801C21.4284 20.8873 21.0919 20.4662 20.6603 20.1698C20.2286 19.8735 19.7212 19.7153 19.2021 19.7153C18.6829 19.7153 18.1755 19.8735 17.7438 20.1698C17.3122 20.4662 16.9757 20.8873 16.7771 21.3801C16.5784 21.8729 16.5264 22.4152 16.6276 22.9383C16.7289 23.4615 16.9788 23.9421 17.3459 24.3193L18.5839 23.0481C18.4615 22.9223 18.3782 22.7622 18.3444 22.5878C18.3106 22.4134 18.3279 22.2326 18.3941 22.0683C18.4603 21.904 18.5725 21.7636 18.7164 21.6648C18.8603 21.566 19.0294 21.5133 19.2025 21.5133C19.3756 21.5133 19.5447 21.566 19.6886 21.6648C19.8325 21.7636 19.9446 21.904 20.0109 22.0683C20.0771 22.2326 20.0944 22.4134 20.0606 22.5878C20.0268 22.7622 19.9435 22.9223 19.8211 23.0481L21.0583 24.3193V24.3193Z" fill="#159643"/>
</svg>
