<svg width="31" height="34" viewBox="0 0 31 34" fill="none" xmlns="http://www.w3.org/2000/svg">
<g clip-path="url(#clip0_306_615)">
<path d="M15.5849 19.3583C14.6021 19.3583 13.6596 19.7929 12.9646 20.5664C12.2697 21.34 11.8793 22.3891 11.8793 23.4831V33.1435H19.2906V23.4831C19.2906 22.3891 18.9002 21.34 18.2052 20.5664C17.5103 19.7929 16.5677 19.3583 15.5849 19.3583Z" fill="white"/>
<path d="M17.2376 1.25495C16.784 0.800444 16.1953 0.54895 15.5849 0.54895C14.9746 0.54895 14.3858 0.800444 13.9322 1.25495L0.762268 14.449V28.7484C0.762268 29.9153 1.17871 31.0344 1.91999 31.8596C2.66126 32.6847 3.66665 33.1482 4.71497 33.1482H9.40881V23.4837C9.40881 21.6604 10.0595 19.9118 11.2177 18.6226C12.376 17.3333 13.9469 16.609 15.5849 16.609C17.2229 16.609 18.7938 17.3333 19.9521 18.6226C21.1103 19.9118 21.761 21.6604 21.761 23.4837V33.1441H26.4548C27.5032 33.1441 28.5086 32.6806 29.2498 31.8554C29.9911 31.0303 30.4075 29.9112 30.4075 28.7443V14.4448L17.2376 1.25495Z" fill="white"/>
</g>
<defs>
<clipPath id="clip0_306_615">
<rect width="29.6453" height="32.9987" fill="white" transform="translate(0.762268 0.109497)"/>
</clipPath>
</defs>
</svg>
