<svg width="38" height="39" viewBox="0 0 38 39" fill="none" xmlns="http://www.w3.org/2000/svg">
<path d="M0.0565796 1.48303C0.0565796 0.930748 0.504295 0.483032 1.05658 0.483032H36.1132C36.6655 0.483032 37.1132 0.930747 37.1132 1.48303V37.5585C37.1132 38.1108 36.6655 38.5585 36.1132 38.5585H1.05658C0.504293 38.5585 0.0565796 38.1108 0.0565796 37.5585V1.48303Z" fill="url(#paint0_linear_306_626)"/>
<g clip-path="url(#clip0_306_626)">
<path d="M21.233 14.6123C20.7288 14.6204 20.2356 14.765 19.8032 15.0316C19.3708 15.2981 19.0145 15.6772 18.7703 16.1306C18.5261 15.6772 18.1698 15.2981 17.7374 15.0316C17.305 14.765 16.8118 14.6204 16.3076 14.6123C15.5038 14.6482 14.7465 15.0095 14.2012 15.6172C13.6558 16.225 13.3667 17.0298 13.3971 17.8559C13.3971 20.9729 18.3028 24.573 18.5115 24.7258L18.7703 24.9139L19.0291 24.7258C19.2377 24.5739 24.1435 20.9729 24.1435 17.8559C24.1738 17.0298 23.8847 16.225 23.3394 15.6172C22.794 15.0095 22.0368 14.6482 21.233 14.6123V14.6123Z" fill="white"/>
</g>
<defs>
<linearGradient id="paint0_linear_306_626" x1="0.0565796" y1="0.483032" x2="38.118" y2="37.526" gradientUnits="userSpaceOnUse">
<stop stop-color="#4000F4"/>
<stop offset="0.224829" stop-color="#603AED"/>
<stop offset="0.469313" stop-color="#7C6EE6"/>
<stop offset="0.657091" stop-color="#979FE1"/>
<stop offset="0.77684" stop-color="#A2B3DE"/>
<stop offset="0.889332" stop-color="#ADC8DC"/>
<stop offset="1" stop-color="#C0ECD7"/>
</linearGradient>
<clipPath id="clip0_306_626">
<path d="M13.397 15.1903C13.397 14.638 13.8447 14.1903 14.397 14.1903H23.1434C23.6957 14.1903 24.1434 14.638 24.1434 15.1903V24.2322C24.1434 24.7845 23.6957 25.2322 23.1434 25.2322H14.397C13.8447 25.2322 13.397 24.7845 13.397 24.2322V15.1903Z" fill="white"/>
</clipPath>
</defs>
</svg>
