<svg width="31" height="32" viewBox="0 0 31 32" fill="none" xmlns="http://www.w3.org/2000/svg">
<g clip-path="url(#clip0_306_618)">
<path d="M30.4073 29.5045L22.6723 21.5569C24.6816 19.0319 25.6695 15.8101 25.4316 12.5578C25.1938 9.30547 23.7485 6.27149 21.3946 4.08341C19.0407 1.89533 15.9584 0.72055 12.7852 0.802072C9.61198 0.883593 6.59065 2.21518 4.34614 4.5214C2.10164 6.82761 0.805683 9.93202 0.726343 13.1925C0.647002 16.453 1.79034 19.62 3.91988 22.0386C6.04941 24.4572 9.0022 25.9423 12.1675 26.1866C15.3328 26.431 18.4684 25.416 20.9257 23.3515L28.6607 31.2991L30.4073 29.5045ZM13.1142 23.684C11.1598 23.684 9.24925 23.0885 7.6242 21.9728C5.99915 20.8572 4.73258 19.2714 3.98465 17.4161C3.23673 15.5608 3.04104 13.5193 3.42233 11.5497C3.80362 9.58012 4.74476 7.77095 6.12675 6.35096C7.50874 4.93098 9.2695 3.96395 11.1864 3.57218C13.1033 3.18041 15.0901 3.38148 16.8958 4.14997C18.7015 4.91846 20.2448 6.21986 21.3306 7.88958C22.4164 9.55931 22.996 11.5224 22.996 13.5305C22.993 16.2225 21.951 18.8033 20.0984 20.7068C18.2459 22.6103 15.7341 23.681 13.1142 23.684Z" fill="white"/>
</g>
<defs>
<clipPath id="clip0_306_618">
<rect width="29.6453" height="30.4604" fill="white" transform="translate(0.762268 0.837769)"/>
</clipPath>
</defs>
</svg>
